<?xml version="1.0" standalone="no"?>
<!DOCTYPE svg PUBLIC "-//W3C//DTD SVG 20010904//EN"
 "http://www.w3.org/TR/2001/REC-SVG-20010904/DTD/svg10.dtd">
<svg version="1.0" xmlns="http://www.w3.org/2000/svg"
 width="1000.000000pt" height="1000.000000pt" viewBox="0 0 1000.000000 1000.000000"
 preserveAspectRatio="xMidYMid meet">
<metadata>
Created by potrace 1.11, written by Peter Selinger 2001-2013
</metadata>
<g transform="translate(0.000000,1000.000000) scale(0.100000,-0.100000)"
fill="#000000" stroke="none">
<path d="M1313 7381 c-195 -31 -367 -124 -510 -274 -89 -93 -151 -198 -193
-325 -30 -87 -34 -112 -37 -237 -4 -125 -2 -150 20 -237 80 -309 304 -541 614
-634 76 -23 107 -27 223 -28 111 0 150 4 220 22 283 77 505 281 601 552 15 41
30 95 34 120 l8 45 23 -85 c43 -163 124 -300 240 -411 115 -109 219 -169 371
-215 77 -24 106 -27 228 -27 113 0 155 4 219 21 309 85 543 320 628 631 17 61
21 105 21 221 0 129 -3 155 -26 233 -94 306 -320 526 -626 609 -60 16 -106 21
-216 21 -123 0 -151 -3 -228 -27 -155 -46 -269 -113 -380 -223 -114 -113 -184
-231 -231 -394 l-22 -79 -18 75 c-22 92 -88 229 -150 312 -115 153 -294 268
-490 317 -78 20 -248 29 -323 17z"/>
<path d="M4830 3015 l0 -2315 930 0 930 0 2 1528 3 1527 370 0 370 0 3 -1527
2 -1528 930 0 930 0 0 2315 0 2315 -2235 0 -2235 0 0 -2315z"/>
<path d="M700 3000 l0 -2310 1740 0 1740 0 0 785 0 785 -807 2 -808 3 -3 298
c-2 234 0 297 10 297 7 0 213 -88 457 -195 244 -107 445 -195 447 -195 2 0 4
250 4 556 0 441 -3 555 -12 551 -7 -3 -209 -95 -450 -206 -240 -111 -441 -201
-447 -201 -8 0 -11 84 -11 285 l0 285 810 0 810 0 0 785 0 785 -1740 0 -1740
0 0 -2310z"/>
</g>
</svg>
